<?xml version="1.0" encoding="UTF-8"?>
<!DOCTYPE svg PUBLIC "-//W3C//DTD SVG 1.1//EN" "http://www.w3.org/Graphics/SVG/1.1/DTD/svg11.dtd">
<svg xmlns="http://www.w3.org/2000/svg" version="1.1" width="303px" height="303px" style="shape-rendering:geometricPrecision; text-rendering:geometricPrecision; image-rendering:optimizeQuality; fill-rule:evenodd; clip-rule:evenodd" xmlns:xlink="http://www.w3.org/1999/xlink">
<g><path style="opacity:0.993" fill="#fefefe" d="M 53.5,-0.5 C 118.833,-0.5 184.167,-0.5 249.5,-0.5C 279.283,5.61623 296.95,23.6162 302.5,53.5C 302.5,118.5 302.5,183.5 302.5,248.5C 296.833,278.833 278.833,296.833 248.5,302.5C 183.5,302.5 118.5,302.5 53.5,302.5C 23.1667,296.833 5.16667,278.833 -0.5,248.5C -0.5,183.5 -0.5,118.5 -0.5,53.5C 5.19384,23.1395 23.1938,5.13948 53.5,-0.5 Z"/></g>
<g><path style="opacity:1" fill="#231f20" d="M 166.5,54.5 C 166.5,70.8333 166.5,87.1667 166.5,103.5C 178.167,103.5 189.833,103.5 201.5,103.5C 201.5,115.167 201.5,126.833 201.5,138.5C 189.833,138.5 178.167,138.5 166.5,138.5C 166.333,156.503 166.5,174.503 167,192.5C 168.316,199.815 172.483,204.648 179.5,207C 187.159,207.5 194.826,207.666 202.5,207.5C 202.5,219.833 202.5,232.167 202.5,244.5C 190.167,244.5 177.833,244.5 165.5,244.5C 141.662,243.163 127.162,230.829 122,207.5C 121.5,184.502 121.333,161.502 121.5,138.5C 112.833,138.5 104.167,138.5 95.5,138.5C 95.1681,128.145 95.5014,117.812 96.5,107.5C 121.692,98.7836 135.025,81.1169 136.5,54.5C 146.5,54.5 156.5,54.5 166.5,54.5 Z"/></g>
<g><path style="opacity:1" fill="#8f8d8d" d="M 166.5,54.5 C 167.496,70.3246 167.83,86.3246 167.5,102.5C 179.012,102.172 190.346,102.505 201.5,103.5C 189.833,103.5 178.167,103.5 166.5,103.5C 166.5,87.1667 166.5,70.8333 166.5,54.5 Z"/></g>
<g><path style="opacity:1" fill="#7e7c7c" d="M 202.5,207.5 C 203.495,219.989 203.829,232.656 203.5,245.5C 190.656,245.829 177.989,245.495 165.5,244.5C 177.833,244.5 190.167,244.5 202.5,244.5C 202.5,232.167 202.5,219.833 202.5,207.5 Z"/></g>
</svg>
